<svg width="14" height="14" viewBox="0 0 14 14" fill="none" xmlns="http://www.w3.org/2000/svg">
<g clip-path="url(#clip0_50_27)">
<path d="M1.16663 5.54167C1.16664 4.89254 1.36356 4.25868 1.73137 3.72381C2.09919 3.18894 2.62059 2.77822 3.22673 2.5459C3.83287 2.31358 4.49522 2.2706 5.1263 2.42261C5.75738 2.57463 6.32751 2.9145 6.76138 3.39734C6.79193 3.43001 6.82888 3.45606 6.86992 3.47387C6.91096 3.49168 6.95522 3.50087 6.99996 3.50087C7.0447 3.50087 7.08896 3.49168 7.13 3.47387C7.17104 3.45606 7.20798 3.43001 7.23854 3.39734C7.67105 2.91136 8.2413 2.56863 8.87341 2.41477C9.50552 2.26091 10.1695 2.30321 10.777 2.53604C11.3844 2.76887 11.9066 3.18118 12.2739 3.71811C12.6413 4.25504 12.8364 4.89111 12.8333 5.54167C12.8333 6.8775 11.9583 7.875 11.0833 8.75L7.87963 11.8493C7.77093 11.9741 7.63692 12.0744 7.48649 12.1434C7.33605 12.2125 7.17265 12.2487 7.00713 12.2498C6.84161 12.2508 6.67775 12.2167 6.52646 12.1495C6.37517 12.0824 6.23989 11.9838 6.12963 11.8603L2.91663 8.75C2.04163 7.875 1.16663 6.88334 1.16663 5.54167Z" stroke="#423F35" stroke-width="1.16667" stroke-linecap="round" stroke-linejoin="round"/>
</g>
<defs>
<clipPath id="clip0_50_27">
<rect width="14" height="14" fill="white"/>
</clipPath>
</defs>
</svg>
